# xmcd
#
# Track frame offsets: 
#        150
#        20672
#        41262
#        61665
#        80515
#        110665
#        127982
#        146027
#
# Disc length: 2193 seconds
#
# Revision: 2
# Processed by: cddbd v1.5.2PL0 Copyright (c) Steve Scherf et al.
# Submitted via: ExactAudioCopy v0.99pb4
#
DISCID=65088f08
DTITLE=Lem Winchester - With Feeling
DYEAR=1960
DGENRE=Jazz
TTITLE0=Why Don't They Understand
TTITLE1=Butterfly
TTITLE2=With A Song In My Heart
TTITLE3=But Beautiful
TTITLE4=Skylark
TTITLE5=To Love And Be Loved
TTITLE6=The Kids
TTITLE7=My Romance
EXTD=YEAR: 1960
EXTT0=
EXTT1=
EXTT2=
EXTT3=
EXTT4=
EXTT5=
EXTT6=
EXTT7=
PLAYORDER=
